<svg width="29" height="17" viewBox="0 0 29 17" fill="none" xmlns="http://www.w3.org/2000/svg">
<path opacity="0.2" d="M28 8.5C21.25 21.4901 17.875 14.9956 14.5 8.5H28ZM1 8.5H14.5C11.125 2.00438 7.75 -4.49007 1 8.5Z" fill="#4D9FC4"/>
<path d="M28.9149 8.90139C26.0641 14.4264 23.5502 17 20.9844 17C17.7318 17 15.7064 13.0664 13.5618 8.90139C11.8694 5.61472 9.9516 1.88889 8.02079 1.88889C5.89561 1.88889 3.31559 6.28174 1.96662 8.90139C1.8466 9.12334 1.63576 9.29352 1.37946 9.37533C1.12315 9.45714 0.841837 9.44405 0.59601 9.33888C0.350184 9.2337 0.159477 9.04485 0.0648961 8.81291C-0.0296844 8.58098 -0.0205841 8.3245 0.0902401 8.09861C2.92943 2.57361 5.44984 0 8.02079 0C11.2734 0 13.2988 3.93361 15.4434 8.09861C17.1306 11.3853 19.0484 15.1111 20.9792 15.1111C23.1044 15.1111 25.6844 10.7183 27.0334 8.09861C27.1534 7.87666 27.3642 7.70648 27.6205 7.62467C27.8769 7.54286 28.1582 7.55595 28.404 7.66112C28.6498 7.76629 28.8405 7.95515 28.9351 8.18709C29.0297 8.41902 29.0206 8.6755 28.9098 8.90139H28.9149Z" fill="#4D9FC4"/>
</svg>
