<svg width="24" height="24" viewBox="0 0 24 24" fill="none" xmlns="http://www.w3.org/2000/svg">
<path d="M7 5.14286C7 5.0705 7.02314 5.02287 7.04005 5H8.95994C8.97686 5.02287 9 5.0705 9 5.14286V18.8571C9 18.9295 8.97686 18.9771 8.95995 19H7.04005C7.02314 18.9771 7 18.9295 7 18.8571V5.14286Z" fill="black" stroke="black" stroke-width="2" stroke-linecap="round" stroke-linejoin="round"/>
<path d="M15 5.14286C15 5.0705 15.0231 5.02287 15.0401 5H16.9599C16.9769 5.02287 17 5.0705 17 5.14286V18.8571C17 18.9295 16.9769 18.9771 16.9599 19H15.0401C15.0231 18.9771 15 18.9295 15 18.8571V5.14286Z" fill="black" stroke="black" stroke-width="2" stroke-linecap="round" stroke-linejoin="round"/>
</svg>
