<svg width="24" height="24" viewBox="0 0 24 24" fill="none" xmlns="http://www.w3.org/2000/svg">
<path d="M10.0755 5.32503C10.2026 5.38624 10.3098 5.48204 10.3849 5.60144C10.46 5.72083 10.4999 5.85898 10.5 6.00003V18C10.4998 18.1412 10.4598 18.2794 10.3846 18.3988C10.3093 18.5182 10.2019 18.6139 10.0747 18.675C9.9475 18.7361 9.80562 18.7601 9.6654 18.7442C9.52517 18.7283 9.39228 18.6731 9.282 18.585L5.7375 15.75H2.25C2.05109 15.75 1.86032 15.671 1.71967 15.5304C1.57902 15.3897 1.5 15.1989 1.5 15V9.00003C1.5 8.80111 1.57902 8.61035 1.71967 8.4697C1.86032 8.32904 2.05109 8.25003 2.25 8.25003H5.7375L9.282 5.41503C9.39236 5.32681 9.52539 5.27156 9.66578 5.25563C9.80616 5.23971 9.94819 5.26376 10.0755 5.32503ZM20.781 8.46903C20.8508 8.53869 20.9063 8.62146 20.9441 8.71258C20.9819 8.80369 21.0013 8.90138 21.0013 9.00003C21.0013 9.09868 20.9819 9.19636 20.9441 9.28748C20.9063 9.37859 20.8508 9.46136 20.781 9.53103L18.3105 12L20.781 14.469C20.9218 14.6099 21.0009 14.8009 21.0009 15C21.0009 15.1992 20.9218 15.3902 20.781 15.531C20.6402 15.6719 20.4492 15.751 20.25 15.751C20.0508 15.751 19.8598 15.6719 19.719 15.531L17.25 13.0605L14.781 15.531C14.6402 15.6719 14.4492 15.751 14.25 15.751C14.0508 15.751 13.8598 15.6719 13.719 15.531C13.5782 15.3902 13.4991 15.1992 13.4991 15C13.4991 14.8009 13.5782 14.6099 13.719 14.469L16.1895 12L13.719 9.53103C13.6493 9.46129 13.594 9.37851 13.5562 9.2874C13.5185 9.19629 13.4991 9.09864 13.4991 9.00003C13.4991 8.90141 13.5185 8.80376 13.5562 8.71265C13.594 8.62154 13.6493 8.53876 13.719 8.46903C13.8598 8.3282 14.0508 8.24908 14.25 8.24908C14.3486 8.24908 14.4463 8.2685 14.5374 8.30624C14.6285 8.34398 14.7113 8.39929 14.781 8.46903L17.25 10.9395L19.719 8.46903C19.7887 8.39918 19.8714 8.34377 19.9626 8.30596C20.0537 8.26815 20.1513 8.24869 20.25 8.24869C20.3487 8.24869 20.4463 8.26815 20.5374 8.30596C20.6286 8.34377 20.7113 8.39918 20.781 8.46903Z" fill="black"/>
</svg>
