<svg width="22" height="22" viewBox="0 0 22 22" fill="none" xmlns="http://www.w3.org/2000/svg">
<path d="M3.5 18.7143H7.25V11.8571H14.75V18.7143H18.5V8.42857L11 3.28571L3.5 8.42857V18.7143ZM3.5 21C2.8125 21 2.22375 20.776 1.73375 20.328C1.24375 19.88 0.999169 19.3421 1 18.7143V8.42857C1 8.06667 1.08875 7.72381 1.26625 7.4C1.44375 7.07619 1.68834 6.80952 2 6.6L9.5 1.45714C9.72917 1.30476 9.96875 1.19048 10.2187 1.11429C10.4687 1.0381 10.7292 1 11 1C11.2708 1 11.5312 1.0381 11.7812 1.11429C12.0312 1.19048 12.2708 1.30476 12.5 1.45714L20 6.6C20.3125 6.80952 20.5575 7.07619 20.735 7.4C20.9125 7.72381 21.0008 8.06667 21 8.42857V18.7143C21 19.3429 20.755 19.8811 20.265 20.3291C19.775 20.7771 19.1867 21.0008 18.5 21H12.25V14.1429H9.75V21H3.5Z" fill="#092147"/>
</svg>
