<svg width="20" height="20" viewBox="0 0 20 20" fill="none" xmlns="http://www.w3.org/2000/svg">
<path d="M2.5 17.7143H6.25V10.8571H13.75V17.7143H17.5V7.42857L10 2.28571L2.5 7.42857V17.7143ZM2.5 20C1.8125 20 1.22375 19.776 0.733752 19.328C0.243752 18.88 -0.000831211 18.3421 2.12224e-06 17.7143V7.42857C2.12224e-06 7.06667 0.0887519 6.72381 0.266252 6.4C0.443752 6.07619 0.688335 5.80952 1 5.6L8.5 0.457143C8.72917 0.304762 8.96875 0.190476 9.21875 0.114286C9.46875 0.0380951 9.72917 0 10 0C10.2708 0 10.5312 0.0380951 10.7812 0.114286C11.0312 0.190476 11.2708 0.304762 11.5 0.457143L19 5.6C19.3125 5.80952 19.5575 6.07619 19.735 6.4C19.9125 6.72381 20.0008 7.06667 20 7.42857V17.7143C20 18.3429 19.755 18.8811 19.265 19.3291C18.775 19.7771 18.1867 20.0008 17.5 20H11.25V13.1429H8.75V20H2.5Z" fill="#092147"/>
</svg>
