<svg width="22" height="20" viewBox="0 0 22 20" fill="none" xmlns="http://www.w3.org/2000/svg">
<path d="M11.0002 18.3417L9.62516 19.5333C3.57516 14.125 0.458496 11.2833 0.458496 7.8C0.458496 6.7 0.825163 5.69167 1.37516 4.86667V5.41667C1.37516 9.725 4.95016 12.9333 11.0002 18.3417ZM12.4668 14.5833C16.7752 10.6417 19.7085 8.075 19.8002 5.41667C19.8002 3.58333 18.4252 2.20833 16.5918 2.20833C15.1252 2.20833 13.7502 3.125 13.2918 4.40833H11.5502C11.0002 3.125 9.62516 2.20833 8.25016 2.20833C6.41683 2.20833 5.04183 3.58333 5.04183 5.41667C5.04183 8.075 7.8835 10.6417 12.2835 14.5833L12.3752 14.675M16.5002 0.375C19.3418 0.375 21.5418 2.575 21.5418 5.41667C21.5418 8.80833 18.4252 11.65 12.3752 17.15C6.32516 11.7417 3.2085 8.9 3.2085 5.41667C3.2085 2.575 5.4085 0.375 8.25016 0.375C9.8085 0.375 11.3668 1.10833 12.3752 2.3C13.3835 1.10833 14.9418 0.375 16.5002 0.375Z" fill="#092147"/>
</svg>
