<svg width="22" height="22" viewBox="0 0 22 22" fill="none" xmlns="http://www.w3.org/2000/svg">
<path d="M11.0002 19.3417L9.62516 20.5333C3.57516 15.125 0.458496 12.2833 0.458496 8.8C0.458496 7.7 0.825163 6.69167 1.37516 5.86667V6.41667C1.37516 10.725 4.95016 13.9333 11.0002 19.3417ZM12.4668 15.5833C16.7752 11.6417 19.7085 9.075 19.8002 6.41667C19.8002 4.58333 18.4252 3.20833 16.5918 3.20833C15.1252 3.20833 13.7502 4.125 13.2918 5.40833H11.5502C11.0002 4.125 9.62516 3.20833 8.25016 3.20833C6.41683 3.20833 5.04183 4.58333 5.04183 6.41667C5.04183 9.075 7.8835 11.6417 12.2835 15.5833L12.3752 15.675M16.5002 1.375C19.3418 1.375 21.5418 3.575 21.5418 6.41667C21.5418 9.80833 18.4252 12.65 12.3752 18.15C6.32516 12.7417 3.2085 9.9 3.2085 6.41667C3.2085 3.575 5.4085 1.375 8.25016 1.375C9.8085 1.375 11.3668 2.10833 12.3752 3.3C13.3835 2.10833 14.9418 1.375 16.5002 1.375Z" fill="#092147"/>
</svg>
