<svg width="28" height="18" viewBox="0 0 28 18" fill="none" xmlns="http://www.w3.org/2000/svg">
<path opacity="0.2" d="M26.1875 9.0001C20.0938 21.9903 17.0469 15.4958 14 9.0001H26.1875ZM1.8125 9.0001H14C10.9531 2.50439 7.90625 -3.99014 1.8125 9.0001Z" fill="#0085FF"/>
<path d="M27.0359 9.39844C24.4578 14.8828 22.1843 17.4375 19.864 17.4375C16.9226 17.4375 15.091 13.5328 13.1515 9.39844C11.621 6.13594 9.88666 2.4375 8.14057 2.4375C6.21869 2.4375 3.88549 6.79805 2.66557 9.39844C2.55703 9.61875 2.36636 9.78768 2.13458 9.86889C1.90279 9.9501 1.64839 9.93711 1.42608 9.83271C1.20377 9.72831 1.03131 9.54084 0.945773 9.31061C0.86024 9.08039 0.86847 8.82579 0.968692 8.60156C3.53627 3.11719 5.81557 0.5625 8.14057 0.5625C11.082 0.5625 12.9136 4.46719 14.8531 8.60156C16.3789 11.8641 18.1132 15.5625 19.8593 15.5625C21.7812 15.5625 24.1144 11.202 25.3343 8.60156C25.4429 8.38125 25.6335 8.21232 25.8653 8.13111C26.0971 8.0499 26.3515 8.06289 26.5738 8.16729C26.7961 8.27169 26.9686 8.45916 27.0541 8.68939C27.1396 8.91961 27.1314 9.17421 27.0312 9.39844H27.0359Z" fill="#0085FF"/>
</svg>
