<svg width="20" height="20" viewBox="0 0 20 20" fill="none" xmlns="http://www.w3.org/2000/svg">
<path fill-rule="evenodd" clip-rule="evenodd" d="M9.626 3.00008C13.3789 3.05417 16.4579 6.48248 18 9.43226C18 9.43226 17.4573 10.5606 16.9484 11.2829C16.7021 11.6323 16.443 11.9727 16.1707 12.302C15.9766 12.5364 15.7761 12.7646 15.5681 12.9864C13.7094 14.9698 11.04 16.4493 8.22122 15.8749C5.08975 15.2366 2.53539 12.5104 1 9.57831C1 9.57831 1.54516 8.44888 2.05695 7.72766C2.28623 7.4042 2.52687 7.08939 2.77886 6.78395C2.97194 6.54991 3.17212 6.32165 3.37903 6.09987C5.02125 4.34155 7.12842 2.98782 9.626 3.00008ZM9.61287 4.44252C7.52238 4.43458 5.78398 5.62063 4.40866 7.09299C4.22162 7.29313 4.04132 7.4994 3.8667 7.71071C3.63706 7.9891 3.41772 8.27651 3.20867 8.57113C2.99962 8.86538 2.78525 9.23681 2.61525 9.55234C3.96891 11.8635 6.00083 13.951 8.50054 14.4606C10.8299 14.9355 13.0038 13.6308 14.5399 11.9919C14.7276 11.7917 14.909 11.5851 15.0843 11.3734C15.3328 11.073 15.5691 10.7625 15.7938 10.4434C16.0018 10.1481 16.2158 9.77592 16.3855 9.46003C14.9807 7.07099 12.5772 4.4894 9.61287 4.44252Z" fill="#8F9397"/>
<path fill-rule="evenodd" clip-rule="evenodd" d="M9.50019 6.61423C11.0707 6.61423 12.3459 7.90989 12.3459 9.50523C12.3459 11.1009 11.0707 12.3962 9.50019 12.3962C7.93002 12.3962 6.65479 11.1009 6.65479 9.50523C6.65479 7.90989 7.93002 6.61423 9.50019 6.61423Z" fill="#8F9397"/>
</svg>
